<svg width="12" height="10" viewBox="0 0 12 10" fill="none" xmlns="http://www.w3.org/2000/svg">
<path d="M3.24467 9.13636C2.65376 9.13636 2.13955 8.99006 1.70205 8.69744C1.26455 8.40483 0.926484 8.00426 0.687848 7.49574C0.449211 6.98722 0.329893 6.40767 0.329893 5.7571C0.329893 5.10369 0.449211 4.52131 0.687848 4.00994C0.929325 3.49858 1.26029 3.09517 1.68075 2.79972C2.1012 2.50426 2.58131 2.35653 3.12109 2.35653C3.48756 2.35653 3.83415 2.4304 4.16086 2.57812C4.4904 2.72301 4.78018 2.93324 5.03018 3.20881C5.28302 3.48437 5.48046 3.81676 5.62251 4.20597C5.76739 4.59517 5.83984 5.03267 5.83984 5.51847V5.84233H0.658018V5.36932H5.31995C5.31995 4.89489 5.22336 4.46733 5.03018 4.08665C4.837 3.70597 4.57421 3.40341 4.24182 3.17898C3.90944 2.95455 3.53586 2.84233 3.12109 2.84233C2.68643 2.84233 2.29864 2.96449 1.95773 3.20881C1.61967 3.45028 1.3512 3.77699 1.15234 4.18892C0.956314 4.60085 0.854041 5.06108 0.845518 5.5696V5.78267C0.845518 6.32812 0.940689 6.81818 1.13103 7.25284C1.32421 7.68466 1.59978 8.02699 1.95773 8.27983C2.31569 8.52983 2.74467 8.65483 3.24467 8.65483C3.60262 8.65483 3.90802 8.59517 4.16086 8.47585C4.41654 8.35369 4.62535 8.20597 4.78728 8.03267C4.94921 7.85937 5.07137 7.69176 5.15376 7.52983L5.62677 7.72159C5.52734 7.94034 5.37251 8.15909 5.16228 8.37784C4.95489 8.59375 4.69069 8.77415 4.36967 8.91903C4.05148 9.06392 3.67648 9.13636 3.24467 9.13636ZM5.8354 9.0554C5.70756 9.0554 5.59819 9.01136 5.50728 8.9233C5.41921 8.83239 5.37518 8.72301 5.37518 8.59517C5.37518 8.47017 5.41921 8.36222 5.50728 8.27131C5.59819 8.1804 5.70756 8.13494 5.8354 8.13494C5.9604 8.13494 6.06836 8.1804 6.15927 8.27131C6.25018 8.36222 6.29563 8.47017 6.29563 8.59517C6.29563 8.6804 6.27433 8.75852 6.23171 8.82955C6.19194 8.89773 6.13654 8.95312 6.06552 8.99574C5.99734 9.03551 5.92063 9.0554 5.8354 9.0554ZM6.38175 9V0.272727H6.89738V3.91619H6.94852C7.05079 3.63494 7.19567 3.37642 7.38317 3.14062C7.57067 2.90483 7.80363 2.71591 8.08204 2.57386C8.36045 2.42898 8.68573 2.35653 9.05789 2.35653C9.58346 2.35653 10.0423 2.50284 10.4343 2.79545C10.8264 3.08523 11.1303 3.4858 11.3462 3.99716C11.5622 4.50568 11.6701 5.08807 11.6701 5.74432C11.6701 6.40625 11.5622 6.9929 11.3462 7.50426C11.1303 8.01278 10.8278 8.41193 10.4386 8.7017C10.0494 8.99148 9.59056 9.13636 9.06215 9.13636C8.68999 9.13636 8.36471 9.06534 8.0863 8.9233C7.80789 8.77841 7.57494 8.58807 7.38744 8.35227C7.19994 8.11364 7.05363 7.85369 6.94852 7.57244H6.88886V9H6.38175ZM6.89312 5.74006C6.89312 6.29687 6.97692 6.79545 7.14454 7.2358C7.31499 7.6733 7.55931 8.01989 7.87749 8.27557C8.19567 8.52841 8.57636 8.65483 9.01954 8.65483C9.4684 8.65483 9.85192 8.52699 10.1701 8.27131C10.4883 8.01278 10.7312 7.66335 10.8988 7.22301C11.0693 6.78267 11.1545 6.28835 11.1545 5.74006C11.1545 5.19176 11.0693 4.69886 10.8988 4.26136C10.7312 3.82386 10.4883 3.47869 10.1701 3.22585C9.85192 2.97017 9.4684 2.84233 9.01954 2.84233C8.57636 2.84233 8.19567 2.96875 7.87749 3.22159C7.55931 3.47159 7.31499 3.81534 7.14454 4.25284C6.97692 4.6875 6.89312 5.18324 6.89312 5.74006Z" fill="#96304F"/>
</svg>
